# Blender 3.6.5
# www.blender.org
mtllib cube.mtl
o Cube
v -1.000000 -1.000000 1.000000
v -1.000000 1.000000 1.000000
v -1.000000 -1.000000 -1.000000
v -1.000000 1.000000 -1.000000
v 1.000000 -1.000000 1.000000
v 1.000000 1.000000 1.000000
v 1.000000 -1.000000 -1.000000
v 1.000000 1.000000 -1.000000
vn -1.0000 -0.0000 -0.0000
vn -0.0000 -0.0000 -1.0000
vn 1.0000 -0.0000 -0.0000
vn -0.0000 -0.0000 1.0000
vn -0.0000 -1.0000 -0.0000
vn -0.0000 1.0000 -0.0000
vt 0.999935 0.000173
vt 1.999762 1.000000
vt 0.999935 1.000000
vt 0.999935 2.999654
vt 0.000108 1.999826
vt 0.999935 1.999826
vt -0.999719 0.000173
vt 0.000108 1.000000
vt -0.999719 1.000000
vt 0.000108 0.000173
vt 0.999935 -0.999654
vt 0.000108 -0.999653
vt 1.999762 0.000173
vt 0.000108 2.999654
s 0
usemtl Material.001
f 2/1/1 3/2/1 1/3/1
f 4/4/2 7/5/2 3/6/2
f 8/7/3 5/8/3 7/9/3
f 6/10/4 1/3/4 5/8/4
f 7/5/5 1/3/5 3/6/5
f 4/11/6 6/10/6 8/12/6
f 2/1/1 4/13/1 3/2/1
f 4/4/2 8/14/2 7/5/2
f 8/7/3 6/10/3 5/8/3
f 6/10/4 2/1/4 1/3/4
f 7/5/5 5/8/5 1/3/5
f 4/11/6 2/1/6 6/10/6
